<svg width="30" height="24" viewBox="0 0 31 24" fill="none" xmlns="http://www.w3.org/2000/svg">
<path d="M4.75 0H25.3333C26.5931 0 27.8013 0.500445 28.6921 1.39124C29.5829 2.28204 30.0833 3.49022 30.0833 4.75V19C30.0833 20.2598 29.5829 21.468 28.6921 22.3588C27.8013 23.2496 26.5931 23.75 25.3333 23.75H4.75C3.49022 23.75 2.28204 23.2496 1.39124 22.3588C0.500445 21.468 0 20.2598 0 19V4.75C0 3.49022 0.500445 2.28204 1.39124 1.39124C2.28204 0.500445 3.49022 0 4.75 0ZM4.75 1.58333C3.97733 1.58333 3.268 1.86042 2.71858 2.32117L15.0417 10.3233L27.3648 2.32117C26.7956 1.84365 26.0762 1.58236 25.3333 1.58333H4.75ZM15.0417 12.2107L1.7955 3.61C1.65504 3.97365 1.5831 4.36016 1.58333 4.75V19C1.58333 19.8399 1.91696 20.6453 2.51083 21.2392C3.10469 21.833 3.91015 22.1667 4.75 22.1667H25.3333C26.1732 22.1667 26.9786 21.833 27.5725 21.2392C28.1664 20.6453 28.5 19.8399 28.5 19V4.75C28.5 4.34783 28.4256 3.96308 28.2878 3.61L15.0417 12.2091V12.2107Z" fill="#F1AF27"/>
</svg>
