<svg width="17" height="11" viewBox="0 0 17 15" fill="none" xmlns="http://www.w3.org/2000/svg">
<mask id="path-1-outside-1" maskUnits="userSpaceOnUse" x="0" y="-0.0354919" width="15" height="15" fill="black">
<rect fill="white" y="-0.0354919" width="15" height="16"/>
<path fill-rule="evenodd" clip-rule="evenodd" d="M12.6168 4.58031C13.1049 5.43607 13.3837 6.4266 13.3837 7.48225C13.3837 10.7219 10.7574 13.3482 7.51775 13.3482C4.27806 13.3482 1.65177 10.7219 1.65177 7.48225C1.65177 4.24257 4.27806 1.61628 7.51775 1.61628C7.92336 1.61628 8.31935 1.65745 8.70178 1.73583L9.24247 1.19515C8.69311 1.04479 8.11481 0.964508 7.51775 0.964508C3.91809 0.964508 1 3.8826 1 7.48225C1 11.0819 3.91809 14 7.51775 14C11.1174 14 14.0355 11.0819 14.0355 7.48225C14.0355 6.24556 13.6911 5.08931 13.0929 4.10421L12.6168 4.58031Z"/>
</mask>
<path fill-rule="evenodd" clip-rule="evenodd" d="M12.6168 4.58031C13.1049 5.43607 13.3837 6.4266 13.3837 7.48225C13.3837 10.7219 10.7574 13.3482 7.51775 13.3482C4.27806 13.3482 1.65177 10.7219 1.65177 7.48225C1.65177 4.24257 4.27806 1.61628 7.51775 1.61628C7.92336 1.61628 8.31935 1.65745 8.70178 1.73583L9.24247 1.19515C8.69311 1.04479 8.11481 0.964508 7.51775 0.964508C3.91809 0.964508 1 3.8826 1 7.48225C1 11.0819 3.91809 14 7.51775 14C11.1174 14 14.0355 11.0819 14.0355 7.48225C14.0355 6.24556 13.6911 5.08931 13.0929 4.10421L12.6168 4.58031Z" fill="#494949"/>
<path d="M12.6168 4.58031L12.0407 4.00422L11.6011 4.44386L11.9091 4.98395L12.6168 4.58031ZM8.70178 1.73583L8.53819 2.53396L8.96778 2.62201L9.27787 2.31193L8.70178 1.73583ZM9.24247 1.19515L9.81856 1.77124L10.8102 0.779558L9.45754 0.409328L9.24247 1.19515ZM13.0929 4.10421L13.7893 3.68135L13.2506 2.79427L12.5168 3.52811L13.0929 4.10421ZM14.1984 7.48225C14.1984 6.28134 13.8808 5.15215 13.3245 4.17668L11.9091 4.98395C12.3289 5.71999 12.569 6.57185 12.569 7.48225H14.1984ZM7.51775 14.1629C11.2074 14.1629 14.1984 11.1719 14.1984 7.48225H12.569C12.569 10.272 10.3075 12.5335 7.51775 12.5335V14.1629ZM0.837056 7.48225C0.837056 11.1719 3.8281 14.1629 7.51775 14.1629V12.5335C4.72802 12.5335 2.46649 10.272 2.46649 7.48225H0.837056ZM7.51775 0.801564C3.8281 0.801564 0.837056 3.79261 0.837056 7.48225H2.46649C2.46649 4.69252 4.72802 2.431 7.51775 2.431V0.801564ZM8.86536 0.937707C8.42941 0.848354 7.97862 0.801564 7.51775 0.801564V2.431C7.86809 2.431 8.20928 2.46655 8.53819 2.53396L8.86536 0.937707ZM9.27787 2.31193L9.81856 1.77124L8.66637 0.619052L8.12568 1.15974L9.27787 2.31193ZM9.45754 0.409328C8.83876 0.239969 8.18814 0.14979 7.51775 0.14979V1.77923C8.04147 1.77923 8.54747 1.84961 9.02739 1.98096L9.45754 0.409328ZM7.51775 0.14979C3.46814 0.14979 0.185282 3.43265 0.185282 7.48225H1.81472C1.81472 4.33256 4.36805 1.77923 7.51775 1.77923V0.14979ZM0.185282 7.48225C0.185282 11.5319 3.46814 14.8147 7.51775 14.8147V13.1853C4.36805 13.1853 1.81472 10.632 1.81472 7.48225H0.185282ZM7.51775 14.8147C11.5674 14.8147 14.8502 11.5319 14.8502 7.48225H13.2208C13.2208 10.632 10.6674 13.1853 7.51775 13.1853V14.8147ZM14.8502 7.48225C14.8502 6.09227 14.4627 4.79032 13.7893 3.68135L12.3965 4.52706C12.9195 5.38831 13.2208 6.39885 13.2208 7.48225H14.8502ZM12.5168 3.52811L12.0407 4.00422L13.1929 5.1564L13.669 4.6803L12.5168 3.52811Z" fill="#494949" mask="url(#path-1-outside-1)"/>
<path d="M11.1752 6.45527L12.0124 3.01719L15.6375 3.44296" stroke="#494949" stroke-width="1.26281"/>
</svg>
